<svg xmlns="http://www.w3.org/2000/svg" width="337.5" viewBox="0 0 337.5 75" height="75" version="1.0"><defs><clipPath id="a"><path d="M 12.570312 2.34375 L 52 2.34375 L 52 43 L 12.570312 43 Z M 12.570312 2.34375"/></clipPath><clipPath id="b"><path d="M 12.570312 43 L 21 43 L 21 53 L 12.570312 53 Z M 12.570312 43"/></clipPath><clipPath id="c"><path d="M 12.570312 49 L 21 49 L 21 67 L 12.570312 67 Z M 12.570312 49"/></clipPath><clipPath id="d"><path d="M 12.570312 19 L 55.320312 19 L 55.320312 72.84375 L 12.570312 72.84375 Z M 12.570312 19"/></clipPath></defs><g clip-path="url(#a)"><path fill="#3871C1" d="M 48.921875 2.347656 L 38.410156 11.488281 L 42.515625 12.921875 C 34.691406 33.800781 12.652344 42.972656 12.652344 42.972656 C 31.726562 39.039062 44.101562 24.753906 47.945312 14.820312 L 51.535156 16.074219 L 48.921875 2.347656"/></g><path fill="#F9A72B" d="M 24.550781 48.269531 L 24.550781 66.210938 L 32.652344 66.210938 L 32.652344 43.664062 C 30.496094 45.15625 28.167969 46.527344 25.675781 47.738281 C 25.300781 47.921875 24.925781 48.097656 24.550781 48.269531"/><path fill="#EE6A26" d="M 26.632812 41.21875 C 25.941406 41.554688 25.246094 41.875 24.550781 42.179688 L 24.550781 48.269531 C 24.925781 48.097656 25.300781 47.921875 25.675781 47.738281 C 28.167969 46.527344 30.496094 45.15625 32.652344 43.664062 L 32.652344 37.792969 C 30.746094 39.042969 28.734375 40.195312 26.632812 41.21875"/><path fill="#498536" d="M 44.550781 31.703125 L 44.550781 26.839844 C 42.328125 29.785156 39.589844 32.5625 36.449219 35.054688 L 36.449219 40.757812 C 39.742188 37.972656 42.476562 34.898438 44.550781 31.703125"/><path fill="#80CC28" d="M 36.449219 40.757812 L 36.449219 66.210938 L 44.550781 66.210938 L 44.550781 31.703125 C 42.476562 34.898438 39.742188 37.972656 36.449219 40.757812"/><g clip-path="url(#b)"><path fill="#3871C1" d="M 12.652344 45.800781 L 12.652344 52.09375 C 15.316406 51.59375 18.035156 50.847656 20.753906 49.84375 L 20.753906 43.675781 C 18.0625 44.621094 15.347656 45.332031 12.652344 45.800781"/></g><g clip-path="url(#c)"><path fill="#00ADEF" d="M 12.652344 66.210938 L 20.753906 66.210938 L 20.753906 49.84375 C 18.035156 50.847656 15.316406 51.59375 12.652344 52.09375 L 12.652344 66.210938"/></g><g clip-path="url(#d)"><path fill="#3871C1" d="M 51.863281 19.207031 L 51.863281 69.421875 L 12.652344 69.421875 L 12.652344 72.839844 L 55.261719 72.839844 L 55.261719 19.207031 L 51.863281 19.207031"/></g><g><g><g><path d="M 9.28125 0.296875 C 7.988281 0.296875 6.726562 0.148438 5.5 -0.140625 C 4.269531 -0.429688 3.203125 -0.867188 2.296875 -1.453125 C 1.847656 -1.742188 1.570312 -2.097656 1.46875 -2.515625 C 1.375 -2.941406 1.410156 -3.34375 1.578125 -3.71875 C 1.742188 -4.101562 2.003906 -4.367188 2.359375 -4.515625 C 2.722656 -4.660156 3.132812 -4.585938 3.59375 -4.296875 C 4.445312 -3.785156 5.347656 -3.414062 6.296875 -3.1875 C 7.242188 -2.957031 8.238281 -2.84375 9.28125 -2.84375 C 10.8125 -2.84375 11.921875 -3.097656 12.609375 -3.609375 C 13.304688 -4.117188 13.65625 -4.78125 13.65625 -5.59375 C 13.65625 -6.269531 13.410156 -6.800781 12.921875 -7.1875 C 12.429688 -7.570312 11.582031 -7.894531 10.375 -8.15625 L 7.1875 -8.8125 C 3.550781 -9.582031 1.734375 -11.445312 1.734375 -14.40625 C 1.734375 -15.6875 2.070312 -16.800781 2.75 -17.75 C 3.425781 -18.695312 4.363281 -19.429688 5.5625 -19.953125 C 6.757812 -20.472656 8.144531 -20.734375 9.71875 -20.734375 C 10.875 -20.734375 11.972656 -20.585938 13.015625 -20.296875 C 14.066406 -20.003906 15.003906 -19.582031 15.828125 -19.03125 C 16.210938 -18.757812 16.441406 -18.421875 16.515625 -18.015625 C 16.597656 -17.617188 16.550781 -17.25 16.375 -16.90625 C 16.207031 -16.570312 15.9375 -16.34375 15.5625 -16.21875 C 15.1875 -16.09375 14.742188 -16.175781 14.234375 -16.46875 C 13.523438 -16.875 12.800781 -17.164062 12.0625 -17.34375 C 11.332031 -17.519531 10.539062 -17.609375 9.6875 -17.609375 C 8.351562 -17.609375 7.304688 -17.328125 6.546875 -16.765625 C 5.796875 -16.203125 5.421875 -15.46875 5.421875 -14.5625 C 5.421875 -13.863281 5.648438 -13.304688 6.109375 -12.890625 C 6.578125 -12.472656 7.375 -12.148438 8.5 -11.921875 L 11.65625 -11.25 C 13.570312 -10.84375 15 -10.203125 15.9375 -9.328125 C 16.875 -8.460938 17.34375 -7.304688 17.34375 -5.859375 C 17.34375 -4.640625 17.015625 -3.566406 16.359375 -2.640625 C 15.703125 -1.710938 14.769531 -0.988281 13.5625 -0.46875 C 12.351562 0.0390625 10.925781 0.296875 9.28125 0.296875 Z M 9.28125 0.296875" transform="translate(59.23 72.301)"/></g></g></g><g><g><g><path d="M 4.203125 0 C 2.890625 0 2.234375 -0.65625 2.234375 -1.96875 L 2.234375 -18.46875 C 2.234375 -19.78125 2.890625 -20.4375 4.203125 -20.4375 L 14.5625 -20.4375 C 15.5625 -20.4375 16.0625 -19.957031 16.0625 -19 C 16.0625 -17.988281 15.5625 -17.484375 14.5625 -17.484375 L 5.796875 -17.484375 L 5.796875 -11.859375 L 13.921875 -11.859375 C 14.921875 -11.859375 15.421875 -11.363281 15.421875 -10.375 C 15.421875 -9.394531 14.921875 -8.90625 13.921875 -8.90625 L 5.796875 -8.90625 L 5.796875 -2.953125 L 14.5625 -2.953125 C 15.5625 -2.953125 16.0625 -2.460938 16.0625 -1.484375 C 16.0625 -0.492188 15.5625 0 14.5625 0 Z M 4.203125 0" transform="translate(77.527 72.301)"/></g></g></g><g><g><g><path d="M 4.125 0 C 2.863281 0 2.234375 -0.632812 2.234375 -1.90625 L 2.234375 -18.640625 C 2.234375 -19.898438 2.851562 -20.53125 4.09375 -20.53125 C 5.320312 -20.53125 5.9375 -19.898438 5.9375 -18.640625 L 5.9375 -3.15625 L 14.359375 -3.15625 C 15.441406 -3.15625 15.984375 -2.632812 15.984375 -1.59375 C 15.984375 -0.53125 15.441406 0 14.359375 0 Z M 4.125 0" transform="translate(94.838 72.301)"/></g></g></g><g><g><g><path d="M 4.140625 0.234375 C 2.867188 0.234375 2.234375 -0.421875 2.234375 -1.734375 L 2.234375 -18.46875 C 2.234375 -19.78125 2.890625 -20.4375 4.203125 -20.4375 L 14.328125 -20.4375 C 15.328125 -20.4375 15.828125 -19.957031 15.828125 -19 C 15.828125 -17.988281 15.328125 -17.484375 14.328125 -17.484375 L 5.9375 -17.484375 L 5.9375 -11.71875 L 13.71875 -11.71875 C 14.71875 -11.71875 15.21875 -11.234375 15.21875 -10.265625 C 15.21875 -9.265625 14.71875 -8.765625 13.71875 -8.765625 L 5.9375 -8.765625 L 5.9375 -1.734375 C 5.9375 -0.421875 5.335938 0.234375 4.140625 0.234375 Z M 4.140625 0.234375" transform="translate(111.134 72.301)"/></g></g></g><g><g><g><path d="M 4.203125 0 C 2.890625 0 2.234375 -0.65625 2.234375 -1.96875 L 2.234375 -18.46875 C 2.234375 -19.78125 2.890625 -20.4375 4.203125 -20.4375 L 11.171875 -20.4375 C 13.316406 -20.4375 14.976562 -19.96875 16.15625 -19.03125 C 17.332031 -18.09375 17.921875 -16.796875 17.921875 -15.140625 C 17.921875 -14.035156 17.640625 -13.085938 17.078125 -12.296875 C 16.515625 -11.503906 15.742188 -10.925781 14.765625 -10.5625 C 15.921875 -10.226562 16.820312 -9.648438 17.46875 -8.828125 C 18.113281 -8.003906 18.4375 -6.96875 18.4375 -5.71875 C 18.4375 -3.894531 17.820312 -2.484375 16.59375 -1.484375 C 15.375 -0.492188 13.671875 0 11.484375 0 Z M 5.796875 -11.78125 L 10.53125 -11.78125 C 13.0625 -11.78125 14.328125 -12.753906 14.328125 -14.703125 C 14.328125 -16.648438 13.0625 -17.625 10.53125 -17.625 L 5.796875 -17.625 Z M 5.796875 -2.8125 L 11.015625 -2.8125 C 13.566406 -2.8125 14.84375 -3.835938 14.84375 -5.890625 C 14.84375 -7.941406 13.566406 -8.96875 11.015625 -8.96875 L 5.796875 -8.96875 Z M 5.796875 -2.8125" transform="translate(127.43 72.301)"/></g></g></g><g><g><g><path d="M 2.4375 0.234375 C 1.757812 0.234375 1.273438 0.00390625 0.984375 -0.453125 C 0.691406 -0.921875 0.703125 -1.484375 1.015625 -2.140625 L 8.671875 -19.109375 C 8.921875 -19.671875 9.222656 -20.070312 9.578125 -20.3125 C 9.941406 -20.550781 10.351562 -20.671875 10.8125 -20.671875 C 11.257812 -20.671875 11.660156 -20.550781 12.015625 -20.3125 C 12.378906 -20.070312 12.6875 -19.671875 12.9375 -19.109375 L 20.625 -2.140625 C 20.925781 -1.460938 20.941406 -0.894531 20.671875 -0.4375 C 20.398438 0.0078125 19.9375 0.234375 19.28125 0.234375 C 18.738281 0.234375 18.316406 0.101562 18.015625 -0.15625 C 17.722656 -0.414062 17.457031 -0.816406 17.21875 -1.359375 L 15.78125 -4.734375 L 5.796875 -4.734375 L 4.375 -1.359375 C 4.125 -0.796875 3.863281 -0.390625 3.59375 -0.140625 C 3.320312 0.109375 2.9375 0.234375 2.4375 0.234375 Z M 10.765625 -16.40625 L 7.078125 -7.6875 L 14.5 -7.6875 L 10.8125 -16.40625 Z M 10.765625 -16.40625" transform="translate(147.38 72.301)"/></g></g></g><g><g><g><path d="M 3.96875 0.234375 C 2.8125 0.234375 2.234375 -0.363281 2.234375 -1.5625 L 2.234375 -18.828125 C 2.234375 -19.421875 2.378906 -19.875 2.671875 -20.1875 C 2.972656 -20.507812 3.367188 -20.671875 3.859375 -20.671875 C 4.304688 -20.671875 4.640625 -20.585938 4.859375 -20.421875 C 5.078125 -20.265625 5.34375 -19.992188 5.65625 -19.609375 L 16.015625 -6.171875 L 16.015625 -18.90625 C 16.015625 -20.082031 16.59375 -20.671875 17.75 -20.671875 C 18.882812 -20.671875 19.453125 -20.082031 19.453125 -18.90625 L 19.453125 -1.515625 C 19.453125 -0.972656 19.316406 -0.546875 19.046875 -0.234375 C 18.773438 0.078125 18.410156 0.234375 17.953125 0.234375 C 17.503906 0.234375 17.148438 0.144531 16.890625 -0.03125 C 16.628906 -0.207031 16.34375 -0.488281 16.03125 -0.875 L 5.6875 -14.328125 L 5.6875 -1.5625 C 5.6875 -0.363281 5.113281 0.234375 3.96875 0.234375 Z M 3.96875 0.234375" transform="translate(168.953 72.301)"/></g></g></g><g><g><g><path d="M 4.09375 0.234375 C 2.851562 0.234375 2.234375 -0.40625 2.234375 -1.6875 L 2.234375 -18.796875 C 2.234375 -20.046875 2.851562 -20.671875 4.09375 -20.671875 C 5.320312 -20.671875 5.9375 -20.046875 5.9375 -18.796875 L 5.9375 -11.390625 L 6 -11.390625 L 14.328125 -19.75 C 14.640625 -20.0625 14.945312 -20.289062 15.25 -20.4375 C 15.5625 -20.59375 15.910156 -20.671875 16.296875 -20.671875 C 16.859375 -20.671875 17.257812 -20.523438 17.5 -20.234375 C 17.738281 -19.953125 17.832031 -19.613281 17.78125 -19.21875 C 17.738281 -18.832031 17.550781 -18.476562 17.21875 -18.15625 L 9.59375 -10.609375 L 17.625 -2.46875 C 18.03125 -2.082031 18.242188 -1.675781 18.265625 -1.25 C 18.285156 -0.820312 18.15625 -0.46875 17.875 -0.1875 C 17.59375 0.09375 17.179688 0.234375 16.640625 0.234375 C 16.179688 0.234375 15.8125 0.140625 15.53125 -0.046875 C 15.25 -0.242188 14.925781 -0.53125 14.5625 -0.90625 L 6 -9.453125 L 5.9375 -9.453125 L 5.9375 -1.6875 C 5.9375 -0.40625 5.320312 0.234375 4.09375 0.234375 Z M 4.09375 0.234375" transform="translate(190.642 72.301)"/></g></g></g><g><g><g><path d="M 4.09375 0.234375 C 2.851562 0.234375 2.234375 -0.40625 2.234375 -1.6875 L 2.234375 -18.765625 C 2.234375 -20.035156 2.851562 -20.671875 4.09375 -20.671875 C 5.320312 -20.671875 5.9375 -20.035156 5.9375 -18.765625 L 5.9375 -1.6875 C 5.9375 -0.40625 5.320312 0.234375 4.09375 0.234375 Z M 4.09375 0.234375" transform="translate(209.925 72.301)"/></g></g></g><g><g><g><path d="M 3.96875 0.234375 C 2.8125 0.234375 2.234375 -0.363281 2.234375 -1.5625 L 2.234375 -18.828125 C 2.234375 -19.421875 2.378906 -19.875 2.671875 -20.1875 C 2.972656 -20.507812 3.367188 -20.671875 3.859375 -20.671875 C 4.304688 -20.671875 4.640625 -20.585938 4.859375 -20.421875 C 5.078125 -20.265625 5.34375 -19.992188 5.65625 -19.609375 L 16.015625 -6.171875 L 16.015625 -18.90625 C 16.015625 -20.082031 16.59375 -20.671875 17.75 -20.671875 C 18.882812 -20.671875 19.453125 -20.082031 19.453125 -18.90625 L 19.453125 -1.515625 C 19.453125 -0.972656 19.316406 -0.546875 19.046875 -0.234375 C 18.773438 0.078125 18.410156 0.234375 17.953125 0.234375 C 17.503906 0.234375 17.148438 0.144531 16.890625 -0.03125 C 16.628906 -0.207031 16.34375 -0.488281 16.03125 -0.875 L 5.6875 -14.328125 L 5.6875 -1.5625 C 5.6875 -0.363281 5.113281 0.234375 3.96875 0.234375 Z M 3.96875 0.234375" transform="translate(218.102 72.301)"/></g></g></g><g><g><g><path d="M 12.0625 0.296875 C 9.800781 0.296875 7.890625 -0.128906 6.328125 -0.984375 C 4.773438 -1.835938 3.59375 -3.046875 2.78125 -4.609375 C 1.96875 -6.171875 1.5625 -8.023438 1.5625 -10.171875 C 1.5625 -12.335938 1.976562 -14.207031 2.8125 -15.78125 C 3.644531 -17.363281 4.84375 -18.582031 6.40625 -19.4375 C 7.976562 -20.300781 9.851562 -20.734375 12.03125 -20.734375 C 13.113281 -20.734375 14.203125 -20.601562 15.296875 -20.34375 C 16.390625 -20.082031 17.421875 -19.644531 18.390625 -19.03125 C 18.816406 -18.769531 19.0625 -18.429688 19.125 -18.015625 C 19.195312 -17.609375 19.132812 -17.21875 18.9375 -16.84375 C 18.738281 -16.476562 18.445312 -16.222656 18.0625 -16.078125 C 17.675781 -15.929688 17.253906 -15.992188 16.796875 -16.265625 C 16.054688 -16.691406 15.304688 -17 14.546875 -17.1875 C 13.796875 -17.382812 12.957031 -17.484375 12.03125 -17.484375 C 9.863281 -17.484375 8.222656 -16.851562 7.109375 -15.59375 C 6.003906 -14.34375 5.453125 -12.535156 5.453125 -10.171875 C 5.453125 -7.796875 6.019531 -5.988281 7.15625 -4.75 C 8.300781 -3.519531 9.992188 -2.90625 12.234375 -2.90625 C 12.867188 -2.90625 13.519531 -2.957031 14.1875 -3.0625 C 14.863281 -3.164062 15.53125 -3.320312 16.1875 -3.53125 L 16.1875 -8.296875 L 12.984375 -8.296875 C 11.984375 -8.296875 11.484375 -8.757812 11.484375 -9.6875 C 11.484375 -10.59375 11.984375 -11.046875 12.984375 -11.046875 L 17.78125 -11.046875 C 18.78125 -11.046875 19.28125 -10.546875 19.28125 -9.546875 L 19.28125 -2.5 C 19.28125 -1.601562 18.929688 -1.03125 18.234375 -0.78125 C 17.390625 -0.46875 16.414062 -0.207031 15.3125 0 C 14.207031 0.195312 13.125 0.296875 12.0625 0.296875 Z M 12.0625 0.296875" transform="translate(239.791 72.301)"/></g></g></g><g><g><g><path d="M 3.625 0.140625 C 2.96875 0.140625 2.441406 -0.0625 2.046875 -0.46875 C 1.648438 -0.875 1.453125 -1.394531 1.453125 -2.03125 C 1.453125 -2.644531 1.648438 -3.148438 2.046875 -3.546875 C 2.441406 -3.941406 2.96875 -4.140625 3.625 -4.140625 C 4.300781 -4.140625 4.828125 -3.941406 5.203125 -3.546875 C 5.578125 -3.148438 5.765625 -2.644531 5.765625 -2.03125 C 5.765625 -1.394531 5.578125 -0.875 5.203125 -0.46875 C 4.828125 -0.0625 4.300781 0.140625 3.625 0.140625 Z M 3.625 0.140625" transform="translate(261.132 72.301)"/></g></g></g><g><g><g><path d="M 4.125 0 C 2.863281 0 2.234375 -0.632812 2.234375 -1.90625 L 2.234375 -18.640625 C 2.234375 -19.898438 2.851562 -20.53125 4.09375 -20.53125 C 5.320312 -20.53125 5.9375 -19.898438 5.9375 -18.640625 L 5.9375 -3.15625 L 14.359375 -3.15625 C 15.441406 -3.15625 15.984375 -2.632812 15.984375 -1.59375 C 15.984375 -0.53125 15.441406 0 14.359375 0 Z M 4.125 0" transform="translate(268.324 72.301)"/></g></g></g><g><g><g><path d="M 9.015625 0.234375 C 7.773438 0.234375 7.15625 -0.40625 7.15625 -1.6875 L 7.15625 -17.34375 L 1.515625 -17.34375 C 0.441406 -17.34375 -0.09375 -17.863281 -0.09375 -18.90625 C -0.09375 -19.925781 0.441406 -20.4375 1.515625 -20.4375 L 16.53125 -20.4375 C 17.59375 -20.4375 18.125 -19.925781 18.125 -18.90625 C 18.125 -17.863281 17.59375 -17.34375 16.53125 -17.34375 L 10.875 -17.34375 L 10.875 -1.6875 C 10.875 -0.40625 10.253906 0.234375 9.015625 0.234375 Z M 9.015625 0.234375" transform="translate(284.62 72.301)"/></g></g></g><g><g><g><path d="M 4.203125 0 C 2.890625 0 2.234375 -0.65625 2.234375 -1.96875 L 2.234375 -18.46875 C 2.234375 -19.78125 2.890625 -20.4375 4.203125 -20.4375 L 9.828125 -20.4375 C 13.253906 -20.4375 15.898438 -19.554688 17.765625 -17.796875 C 19.628906 -16.046875 20.5625 -13.523438 20.5625 -10.234375 C 20.5625 -6.972656 19.628906 -4.453125 17.765625 -2.671875 C 15.898438 -0.890625 13.253906 0 9.828125 0 Z M 5.9375 -3.078125 L 9.59375 -3.078125 C 14.3125 -3.078125 16.671875 -5.460938 16.671875 -10.234375 C 16.671875 -14.992188 14.3125 -17.375 9.59375 -17.375 L 5.9375 -17.375 Z M 5.9375 -3.078125" transform="translate(302.626 72.301)"/></g></g></g></svg>